<mxfile host="65bd71144e">
    <diagram id="qcGpqYQdO9jhBrNfNrVe" name="Página-1">
        <mxGraphModel dx="1246" dy="702" grid="1" gridSize="10" guides="1" tooltips="1" connect="1" arrows="1" fold="1" page="1" pageScale="1" pageWidth="827" pageHeight="1169" math="0" shadow="0">
            <root>
                <mxCell id="0"/>
                <mxCell id="1" parent="0"/>
            </root>
        </mxGraphModel>
    </diagram>
    <diagram id="GmtqBIiPfoFbScMGoIr6" name="Página-2">
        <mxGraphModel dx="1246" dy="702" grid="1" gridSize="10" guides="1" tooltips="1" connect="1" arrows="1" fold="1" page="1" pageScale="1" pageWidth="827" pageHeight="1169" math="0" shadow="0">
            <root>
                <mxCell id="PSPYxlGAlPftO7P65-h1-0"/>
                <mxCell id="PSPYxlGAlPftO7P65-h1-1" parent="PSPYxlGAlPftO7P65-h1-0"/>
            </root>
        </mxGraphModel>
    </diagram>
</mxfile>